<svg id="Layer_1" data-name="Layer 1" xmlns="http://www.w3.org/2000/svg" width="27" height = "40px" viewBox="0 0 27 40"><defs><style>.cls-1{fill:#3f4bb4;}.cls-2{fill:#3a36b4;}.cls-3{fill:#fefefe;}.cls-4{fill:#e3e9f7;}.cls-5{fill:#ed5253;}.cls-6{fill:#d7dbe4;}.cls-7{fill:#f1d0a4;}.cls-8{fill:#576574;}.cls-9{fill:#f1ba87;}.cls-10{fill:#3e4b5a;}.cls-11{fill:#e2a76f;}.cls-12{fill:#e2a66f;}.cls-13{fill:#f1bb88;}.cls-14{fill:#d73941;}.cls-15{fill:#f1bf8e;}.cls-16{fill:#fff;}</style></defs><path class="cls-1" d="M15.15,8.68c.23,0,.46.05.68.1a11.56,11.56,0,0,1,5.34,2.62,11.5,11.5,0,0,1,4,7.18,11.56,11.56,0,0,1-2.42,9.14,12.6,12.6,0,0,1-3,2.71,4.49,4.49,0,0,0-1.34,1.47l-4.23,7.26,0,0a2.53,2.53,0,0,1-.43-.65L9.85,32a5,5,0,0,0-1.62-1.7,11.83,11.83,0,0,1-5.17-7.9A11.41,11.41,0,0,1,3,19.31a11.6,11.6,0,0,1,1.32-4.5,12.87,12.87,0,0,1,1.66-2.36A11.91,11.91,0,0,1,9.75,9.59a10,10,0,0,1,3.37-1h.25Z"/><path class="cls-2" d="M13.38,8.6a11.78,11.78,0,0,0-2.92.78,11.92,11.92,0,0,0-3.69,2.34,11.65,11.65,0,0,0-3.21,5A11.16,11.16,0,0,0,3,19.31a11.48,11.48,0,0,0,.56,4.84,11.75,11.75,0,0,0,2.29,4A10.8,10.8,0,0,0,8.24,30.2a5.87,5.87,0,0,1,1.9,2.12c.64,1.12,1.3,2.24,1.95,3.36s1.31,2.23,2,3.35a.36.36,0,0,1,0,.09.25.25,0,0,1,0,.17,1.32,1.32,0,0,1-.12.2h-.91a.86.86,0,0,1-.1-.16c-1.42-2.42-2.84-4.84-4.24-7.27A5.41,5.41,0,0,0,7,30.23a11.64,11.64,0,0,1-4.15-4.78,11.81,11.81,0,0,1,2.28-13.4,11.59,11.59,0,0,1,6.34-3.33c.41-.08.51-.09,1-.15h.48Z"/><path class="cls-3" d="M7,25.49a8.45,8.45,0,1,1,13.11,0c-.16.07-.23-.07-.29-.16a2.48,2.48,0,0,0-1.3-.95c-.72-.27-1.43-.56-2.15-.84-.36-.15-.73-.27-1.09-.42-.13-.06-.27-.09-.32-.24a4.13,4.13,0,0,1,0-1.11,1.07,1.07,0,0,1,.34-.42A2.23,2.23,0,0,0,16,20c0-.29.14-.45.44-.45a.94.94,0,0,0,.49-.26,1,1,0,0,0,0-1.33.28.28,0,0,1,0-.09c0-.58,0-1.16-.06-1.73a3.42,3.42,0,0,0-6.76,0c0,.28,0,.56,0,.85a6.77,6.77,0,0,1,0,.9A.35.35,0,0,1,10,18a.92.92,0,0,0,.57,1.49c.3,0,.41.19.44.5a2.26,2.26,0,0,0,.77,1.4,1.06,1.06,0,0,1,.36.4,4.1,4.1,0,0,1,0,1.05c0,.16-.19.2-.32.25l-1.09.43c-.68.26-1.34.53-2,.77a2.73,2.73,0,0,0-1.48,1.06C7.14,25.46,7.08,25.56,7,25.49Z"/><path class="cls-4" d="M16.36,23.48c.8.31,1.6.61,2.4.93a2.32,2.32,0,0,1,1.1.91c.05.07.08.16.2.17a8.39,8.39,0,0,1-4.67,2.92c-.28.06-.57.09-.86.15-.14,0-.17,0-.18-.15l-.3-2.19a1.3,1.3,0,0,1,.49-.76.52.52,0,0,1,.28.13c.26.16.32.15.46-.12.29-.56.56-1.13.85-1.69C16.19,23.67,16.22,23.53,16.36,23.48Z"/><path class="cls-4" d="M8.64,24.27l2-.79c.14.05.17.19.23.3l.8,1.59c.19.39.21.39.57.18a.32.32,0,0,1,.22-.08,2,2,0,0,1,.54.81c-.06.66-.17,1.3-.25,1.95a.43.43,0,0,1-.11.3,1.42,1.42,0,0,1-.71-.06,8,8,0,0,1-4.28-2.23,2,2,0,0,1,.52-1.59A1.7,1.7,0,0,1,8.64,24.27Z"/><path class="cls-5" d="M12.65,28.53l.3-2.31a1.43,1.43,0,0,1,1,0l0,0-.3,2.24c0,.1-.06.21-.16.18C13.24,28.55,12.93,28.68,12.65,28.53Z"/><path class="cls-6" d="M8.64,24.27c-.16.25-.41.41-.58.65a3.08,3.08,0,0,0-.4,1.32A5,5,0,0,1,7,25.49c.11,0,.14-.09.19-.17A2.56,2.56,0,0,1,8.64,24.27Z"/><path class="cls-5" d="M14.53,25.49l-.48.73H14a1.12,1.12,0,0,1-.42-.54.26.26,0,0,1,.08-.37.92.92,0,0,1,.34-.21A.74.74,0,0,1,14.53,25.49Z"/><path class="cls-7" d="M16.43,19.59c-.29,0-.37.18-.41.46A2.5,2.5,0,0,1,15,21.71a1.24,1.24,0,0,1-1.24.44,2.61,2.61,0,0,1-2-2.4c0-.76,0-1.51,0-2.27a.41.41,0,0,1,0-.21.94.94,0,0,1,.51-.14,6.59,6.59,0,0,0,2.36-.83c.34-.21.46-.19.75.08s.33.32.49.5a.84.84,0,0,1,.26.5c0,.54,0,1.09,0,1.64A.53.53,0,0,0,16.43,19.59Z"/><path class="cls-8" d="M16.07,17.33a3.67,3.67,0,0,0-.93-1.07c-.12-.11-.26,0-.39.06a6.54,6.54,0,0,1-2.95.95,2.17,2.17,0,0,1-.88.08c-.12-.07-.11-.19-.11-.3a3.82,3.82,0,0,1,.9-2.73,3.11,3.11,0,0,1,2.1-1.14A3.49,3.49,0,0,1,16.91,16,11.41,11.41,0,0,1,17,17.88c-.27,0-.5-.18-.78-.21S16.14,17.43,16.07,17.33Z"/><path class="cls-6" d="M14.53,25.49,14,25.11a.17.17,0,0,1-.12,0c-.3-.28-.56-.17-.83.06a1.23,1.23,0,0,1-.59.35c-.66.5-.62.38-.92-.23s-.6-1.19-.89-1.78L12,22.92a.41.41,0,0,1,.26.2c.23.3.48.58.71.87.11.13.22.26.32.4s.24.16.36,0l1-1.19c.09-.1.15-.27.33-.27l1.39.55c-.33.67-.67,1.33-1,2-.19.39-.25.4-.6.15Z"/><path class="cls-9" d="M15,22.93c-.45.54-.89,1.07-1.32,1.62-.12.15-.19.16-.3,0L13,24a1.33,1.33,0,0,1-.09-.68,3.08,3.08,0,0,1,0-.43c.06-.46,0-.82-.55-.92a.46.46,0,0,1-.28-.23,2.69,2.69,0,0,1-1.1-1.54.39.39,0,0,1,0-.18c0-.3-.11-.43-.39-.47.1-.09.27-.13.27-.3a5.92,5.92,0,0,0,0-1.33,1.06,1.06,0,0,1,0-.31c0-.12,0-.24.14-.31a2,2,0,0,1,.91-.06v2.31a2.56,2.56,0,0,0,2,2.5,1.59,1.59,0,0,0,.93-.23,1.88,1.88,0,0,0,.24-.14Z"/><path class="cls-10" d="M10.89,17.33l-.07.28-.84.32a8.41,8.41,0,0,1,.12-2.24,3.48,3.48,0,0,1,3.71-2.51,4.83,4.83,0,0,0-1.43.64,3.48,3.48,0,0,0-1.44,2.48A9,9,0,0,0,10.89,17.33Z"/><path class="cls-11" d="M16.07,17.33a.29.29,0,0,0,.36.3c.21,0,.36.15.53.25a.09.09,0,0,1,0,.05,3.48,3.48,0,0,1-.06,1.4.74.74,0,0,1-.48.26c-.3,0-.39-.08-.38-.39C16.08,18.57,16.06,18,16.07,17.33Z"/><path class="cls-12" d="M10,17.93a1.1,1.1,0,0,1,.84-.32v.32s0,0,0,.05a0,0,0,0,1,0,0,1.07,1.07,0,0,0,0,1.24.08.08,0,0,1,0,.08c0,.27-.15.25-.32.25A1,1,0,0,1,10,17.93Z"/><path class="cls-12" d="M12,21.77c.16.07.31.16.47.22.45.19.45.18.45.68V24L12,22.92C12,22.54,12,22.15,12,21.77Z"/><path class="cls-13" d="M16.91,19.33V18.22c0-.1,0-.21.06-.29A1,1,0,0,1,16.91,19.33Z"/><path class="cls-14" d="M12.46,25.49a8.77,8.77,0,0,0,.76-.56.36.36,0,0,1,.57,0,1.73,1.73,0,0,0,.21.17c-.48.4-.48.4-.13.93a1.63,1.63,0,0,1,.11.17H13Z"/><path class="cls-15" d="M10.83,18v-.06a3.3,3.3,0,0,1,0,1.4v-.06A1.88,1.88,0,0,1,10.83,18Z"/><path class="cls-9" d="M10.83,18v1.28A.86.86,0,0,1,10.83,18Z"/><circle class="cls-16" cx="13.67" cy="20.23" r="8.71"/></svg>