<svg
    xmlns="http://www.w3.org/2000/svg"
    viewBox="0 0 507 507"
    id="vector">
    <path
        id="path"
        d="M 253.3 4.4 C 390.985 4.4 502.6 116.015 502.6 253.7 C 502.6 391.385 390.985 503 253.3 503 C 115.615 503 4 391.385 4 253.7 C 4 116.015 115.615 4.4 253.3 4.4 Z"
        fill="#196076"/>
    <path
        id="path_1"
        d="M 253.3 118.8 C 167.3 118.8 97.5 173.6 97.5 241.2 C 97.5 273.2 113.1 302.4 138.8 324.2 C 137.8 345.5 133.4 374 117.8 388.8 C 147.6 388.8 178 369.2 196.1 355.1 C 213.8 360.6 233.1 363.6 253.3 363.6 C 339.3 363.6 409.1 308.8 409.1 241.2 C 409.1 173.6 339.3 118.8 253.3 118.8 Z"
        fill="#ffffff"/>
</svg>
