<svg
    xmlns="http://www.w3.org/2000/svg"
    viewBox="0 0 495 495"
    id="vector">
    <path
        id="path"
        d="M 355.2 93.6 L 299.3 37.7 C 271.7 10.1 223.6 10.1 196 37.7 L 8.3 225.5 C -2.8 236.6 -2.8 254.6 8.3 265.7 C 19.4 276.8 37.4 276.8 48.5 265.7 L 236.2 77.9 C 242.3 71.8 253.1 71.8 259.2 77.9 L 446.9 265.6 C 452.5 271.2 459.7 273.9 467 273.9 C 474.3 273.9 481.5 271.1 487.1 265.6 C 498.2 254.5 498.2 236.5 487.1 225.4 L 412 150.4"
        fill="#b2b2b2"/>
    <path
        id="path_1"
        d="M 257.6 131.8 C 252.1 126.3 243.3 126.3 237.9 131.8 L 72.7 296.9 C 70.1 299.5 68.6 303.1 68.6 306.8 L 68.6 427.2 C 68.6 455.5 91.5 478.4 119.8 478.4 L 201.6 478.4 L 201.6 351.7 L 293.9 351.7 L 293.9 478.3 L 375.7 478.3 C 404 478.3 426.9 455.4 426.9 427.1 L 426.9 306.8 C 426.9 303.1 425.4 299.5 422.8 296.9 L 257.6 131.8 Z"
        fill="#196076"/>
</svg>
