<svg
    xmlns="http://www.w3.org/2000/svg"
    viewBox="0 0 512 512"
    id="vector">
    <path
        id="path"
        d="M 226.9 270.5 L 285 270.5 C 293 270.5 299.5 277 299.5 285 L 299.5 285 C 299.5 293 293 299.5 285 299.5 L 226.9 299.5 C 218.9 299.5 212.4 293 212.4 285 L 212.4 285 C 212.4 277 218.9 270.5 226.9 270.5 Z"
        fill="#196076"/>
    <path
        id="path_1"
        d="M 410.4 299.6 L 334.2 299.6 C 331.1 299.6 328.6 302.1 328.6 305.2 L 328.6 308.6 C 328.6 319.7 319.6 328.7 308.5 328.7 L 203.4 328.7 C 192.3 328.7 183.3 319.7 183.3 308.6 L 183.3 305.2 C 183.3 302.1 180.8 299.6 177.7 299.6 L 101.5 299.6 C 82.7 299.6 66.1 287.6 60.1 269.8 L 18.8 145.5 C 16.8 139.5 8 141 8 147.3 L 8 424.9 C 8 452 30 474 57.1 474 L 454.8 474 C 481.9 474 503.9 452 503.9 424.9 L 503.9 147.2 C 503.9 140.9 495.1 139.5 493.1 145.4 L 451.7 269.7 C 445.8 287.6 429.2 299.6 410.4 299.6 Z"
        fill="#196076"/>
    <path
        id="path_2"
        d="M 306.9 38 L 205.1 38 C 177 38 154.2 60.8 154.2 88.9 L 154.2 88.9 C 154.2 92.9 150.9 96.2 146.9 96.2 L 43.1 96.2 C 38.1 96.2 34.6 101.1 36.2 105.8 L 87.8 260.7 C 89.8 266.6 95.3 270.6 101.6 270.6 L 176.1 270.6 C 180.1 270.6 183.4 267.3 183.4 263.3 L 183.4 263.3 C 183.4 251.3 193.2 241.5 205.2 241.5 L 306.9 241.5 C 318.9 241.5 328.7 251.3 328.7 263.3 L 328.7 263.3 C 328.7 267.3 332 270.6 336 270.6 L 410.5 270.6 C 416.8 270.6 422.3 266.6 424.3 260.7 L 475.9 105.8 C 477.5 101.1 474 96.2 469 96.2 L 365 96.2 C 361 96.2 357.7 92.9 357.7 88.9 L 357.7 88.9 C 357.7 60.8 334.9 38 306.9 38 Z M 183.3 88.9 L 183.3 88.9 C 183.3 76.9 193.1 67.1 205.1 67.1 L 306.8 67.1 C 318.8 67.1 328.6 76.9 328.6 88.9 L 328.6 88.9 C 328.6 92.9 325.3 96.2 321.3 96.2 L 190.6 96.2 C 186.6 96.2 183.3 92.9 183.3 88.9 Z"
        fill="#b2b2b2"/>
</svg>
